<mxfile host="app.diagrams.net" modified="2022-11-09T03:01:20.333Z" agent="5.0 (Windows NT 10.0; Win64; x64) AppleWebKit/537.36 (KHTML, like Gecko) Chrome/104.0.0.0 Safari/537.36" etag="oTATSsW_ARlhNZR3fJlL" version="20.5.3" type="github">
  <diagram id="gUxy-qBg4H8M0a1N89VH" name="k6_frac_N10_tileable_adder_chain_dpram8K_dsp36_fracff_40nm_sub_tile.xml">
    <mxGraphModel dx="737" dy="924" grid="1" gridSize="1" guides="1" tooltips="1" connect="1" arrows="1" fold="1" page="1" pageScale="1" pageWidth="827" pageHeight="1169" math="0" shadow="0">
      <root>
        <mxCell id="0" />
        <mxCell id="1" parent="0" />
        <mxCell id="h3IM62Ve9VoJd0DQMb7h-341" value="" style="group;" vertex="1" connectable="0" parent="1">
          <mxGeometry x="1085" y="1094" width="344" height="220" as="geometry" />
        </mxCell>
        <mxCell id="h3IM62Ve9VoJd0DQMb7h-211" value="" style="group;" vertex="1" connectable="0" parent="h3IM62Ve9VoJd0DQMb7h-341">
          <mxGeometry width="264" height="220" as="geometry" />
        </mxCell>
        <mxCell id="h3IM62Ve9VoJd0DQMb7h-214" value="" style="rounded=0;whiteSpace=wrap;html=1;labelBackgroundColor=none;labelBorderColor=none;strokeColor=default;strokeWidth=2;fontSize=11;fontColor=none;fillColor=none;dashed=1;" vertex="1" parent="h3IM62Ve9VoJd0DQMb7h-211">
          <mxGeometry x="-57.56390977443609" y="-41" width="321.56390977443607" height="261" as="geometry" />
        </mxCell>
        <mxCell id="h3IM62Ve9VoJd0DQMb7h-142" value="frac_lut6" style="rounded=0;whiteSpace=wrap;html=1;labelBackgroundColor=none;labelBorderColor=none;strokeColor=default;strokeWidth=2;fontSize=12;fontColor=none;fillColor=default;movable=1;resizable=1;rotatable=1;deletable=1;editable=1;connectable=1;direction=west;" vertex="1" parent="h3IM62Ve9VoJd0DQMb7h-211">
          <mxGeometry width="114.13533834586467" height="174.64354527938343" as="geometry" />
        </mxCell>
        <mxCell id="h3IM62Ve9VoJd0DQMb7h-197" value="" style="endArrow=classic;html=1;rounded=0;labelBorderColor=none;fontSize=12;fontColor=none;exitX=0;exitY=0.896;exitDx=0;exitDy=0;exitPerimeter=0;" edge="1" parent="h3IM62Ve9VoJd0DQMb7h-211">
          <mxGeometry width="50" height="50" relative="1" as="geometry">
            <mxPoint x="114.13533834586467" y="34.27082851637763" as="sourcePoint" />
            <mxPoint x="263" y="34" as="targetPoint" />
          </mxGeometry>
        </mxCell>
        <mxCell id="h3IM62Ve9VoJd0DQMb7h-198" value="" style="endArrow=classic;html=1;rounded=0;labelBorderColor=none;fontSize=12;fontColor=none;exitX=0;exitY=0.896;exitDx=0;exitDy=0;exitPerimeter=0;entryX=0.996;entryY=0.341;entryDx=0;entryDy=0;entryPerimeter=0;" edge="1" parent="h3IM62Ve9VoJd0DQMb7h-211" target="h3IM62Ve9VoJd0DQMb7h-214">
          <mxGeometry width="50" height="50" relative="1" as="geometry">
            <mxPoint x="114.13533834586467" y="48.68315992292869" as="sourcePoint" />
            <mxPoint x="198.49624060150376" y="48.323699421965316" as="targetPoint" />
          </mxGeometry>
        </mxCell>
        <mxCell id="h3IM62Ve9VoJd0DQMb7h-199" value="" style="endArrow=classic;html=1;rounded=0;labelBorderColor=none;fontSize=12;fontColor=none;exitX=0;exitY=0.896;exitDx=0;exitDy=0;exitPerimeter=0;entryX=0.996;entryY=0.396;entryDx=0;entryDy=0;entryPerimeter=0;" edge="1" parent="h3IM62Ve9VoJd0DQMb7h-211" target="h3IM62Ve9VoJd0DQMb7h-214">
          <mxGeometry width="50" height="50" relative="1" as="geometry">
            <mxPoint x="114.13533834586467" y="63.09549132947975" as="sourcePoint" />
            <mxPoint x="198.49624060150376" y="62.73603082851638" as="targetPoint" />
          </mxGeometry>
        </mxCell>
        <mxCell id="h3IM62Ve9VoJd0DQMb7h-200" value="" style="endArrow=classic;html=1;rounded=0;labelBorderColor=none;fontSize=12;fontColor=none;exitX=0;exitY=0.896;exitDx=0;exitDy=0;exitPerimeter=0;" edge="1" parent="h3IM62Ve9VoJd0DQMb7h-211">
          <mxGeometry width="50" height="50" relative="1" as="geometry">
            <mxPoint x="114.13533834586467" y="19.85849710982657" as="sourcePoint" />
            <mxPoint x="262" y="20" as="targetPoint" />
          </mxGeometry>
        </mxCell>
        <mxCell id="h3IM62Ve9VoJd0DQMb7h-204" value="lut4_out[0]" style="edgeLabel;align=center;verticalAlign=middle;resizable=0;points=[];fontSize=11;fontColor=none;labelBackgroundColor=none;" vertex="1" connectable="0" parent="h3IM62Ve9VoJd0DQMb7h-200">
          <mxGeometry x="-0.6033" y="1" relative="1" as="geometry">
            <mxPoint x="-57" y="-1" as="offset" />
          </mxGeometry>
        </mxCell>
        <mxCell id="h3IM62Ve9VoJd0DQMb7h-201" value="" style="endArrow=classic;html=1;rounded=0;labelBorderColor=none;fontSize=12;fontColor=none;exitX=0;exitY=0.896;exitDx=0;exitDy=0;exitPerimeter=0;" edge="1" parent="h3IM62Ve9VoJd0DQMb7h-211">
          <mxGeometry width="50" height="50" relative="1" as="geometry">
            <mxPoint x="114.13533834586467" y="133.46157996146434" as="sourcePoint" />
            <mxPoint x="169" y="133" as="targetPoint" />
          </mxGeometry>
        </mxCell>
        <mxCell id="h3IM62Ve9VoJd0DQMb7h-202" value="" style="endArrow=classic;html=1;rounded=0;labelBorderColor=none;fontSize=12;fontColor=none;exitX=0.003;exitY=0.081;exitDx=0;exitDy=0;exitPerimeter=0;" edge="1" parent="h3IM62Ve9VoJd0DQMb7h-211" source="h3IM62Ve9VoJd0DQMb7h-142">
          <mxGeometry width="50" height="50" relative="1" as="geometry">
            <mxPoint x="114.13533834586467" y="150.41726396917144" as="sourcePoint" />
            <mxPoint x="263" y="160" as="targetPoint" />
          </mxGeometry>
        </mxCell>
        <mxCell id="h3IM62Ve9VoJd0DQMb7h-203" value="" style="endArrow=classic;html=1;rounded=0;labelBorderColor=none;fontSize=12;fontColor=none;exitX=0;exitY=0.896;exitDx=0;exitDy=0;exitPerimeter=0;" edge="1" parent="h3IM62Ve9VoJd0DQMb7h-211">
          <mxGeometry width="50" height="50" relative="1" as="geometry">
            <mxPoint x="114.13533834586467" y="98.70242774566472" as="sourcePoint" />
            <mxPoint x="169" y="99" as="targetPoint" />
          </mxGeometry>
        </mxCell>
        <mxCell id="h3IM62Ve9VoJd0DQMb7h-205" value="lut4_out[1]" style="edgeLabel;align=center;verticalAlign=middle;resizable=0;points=[];fontSize=11;fontColor=none;labelBackgroundColor=none;" vertex="1" connectable="0" parent="h3IM62Ve9VoJd0DQMb7h-211">
          <mxGeometry x="86.34353798311125" y="33.0623129015944" as="geometry" />
        </mxCell>
        <mxCell id="h3IM62Ve9VoJd0DQMb7h-206" value="lut4_out[2]" style="edgeLabel;align=center;verticalAlign=middle;resizable=0;points=[];fontSize=11;fontColor=none;labelBackgroundColor=none;" vertex="1" connectable="0" parent="h3IM62Ve9VoJd0DQMb7h-211">
          <mxGeometry x="86.34353798311125" y="47.474644308145464" as="geometry" />
        </mxCell>
        <mxCell id="h3IM62Ve9VoJd0DQMb7h-207" value="lut4_out[3]" style="edgeLabel;align=center;verticalAlign=middle;resizable=0;points=[];fontSize=11;fontColor=none;labelBackgroundColor=none;" vertex="1" connectable="0" parent="h3IM62Ve9VoJd0DQMb7h-211">
          <mxGeometry x="86.34353798311125" y="61.03919151431116" as="geometry" />
        </mxCell>
        <mxCell id="h3IM62Ve9VoJd0DQMb7h-208" value="lut6_out[0]" style="edgeLabel;align=center;verticalAlign=middle;resizable=0;points=[];fontSize=11;fontColor=none;labelBackgroundColor=none;" vertex="1" connectable="0" parent="h3IM62Ve9VoJd0DQMb7h-211">
          <mxGeometry x="87.33601918611876" y="98.34169633126685" as="geometry" />
        </mxCell>
        <mxCell id="h3IM62Ve9VoJd0DQMb7h-209" value="lut5_out[0]" style="edgeLabel;align=center;verticalAlign=middle;resizable=0;points=[];fontSize=11;fontColor=none;labelBackgroundColor=none;" vertex="1" connectable="0" parent="h3IM62Ve9VoJd0DQMb7h-211">
          <mxGeometry x="86.34353798311125" y="133.10084854706645" as="geometry" />
        </mxCell>
        <mxCell id="h3IM62Ve9VoJd0DQMb7h-210" value="lut5_out[1]" style="edgeLabel;align=center;verticalAlign=middle;resizable=0;points=[];fontSize=11;fontColor=none;labelBackgroundColor=none;" vertex="1" connectable="0" parent="h3IM62Ve9VoJd0DQMb7h-211">
          <mxGeometry x="86.34353798311125" y="157.99653255477358" as="geometry" />
        </mxCell>
        <mxCell id="h3IM62Ve9VoJd0DQMb7h-215" style="edgeStyle=none;rounded=0;orthogonalLoop=1;jettySize=auto;html=0;labelBorderColor=none;fontSize=11;fontColor=none;startArrow=none;startFill=0;endArrow=classic;endFill=1;exitX=0;exitY=0.494;exitDx=0;exitDy=0;exitPerimeter=0;" edge="1" parent="h3IM62Ve9VoJd0DQMb7h-211" source="h3IM62Ve9VoJd0DQMb7h-214">
          <mxGeometry relative="1" as="geometry">
            <mxPoint x="-0.9924812030075189" y="88.16955684007706" as="targetPoint" />
            <Array as="points">
              <mxPoint x="-54.58646616541354" y="88.16955684007706" />
            </Array>
          </mxGeometry>
        </mxCell>
        <mxCell id="h3IM62Ve9VoJd0DQMb7h-216" value="in" style="edgeLabel;align=center;verticalAlign=middle;resizable=0;points=[];fontSize=11;fontColor=none;labelBackgroundColor=none;" vertex="1" connectable="0" parent="h3IM62Ve9VoJd0DQMb7h-215">
          <mxGeometry x="0.4993" relative="1" as="geometry">
            <mxPoint x="22" y="-1" as="offset" />
          </mxGeometry>
        </mxCell>
        <mxCell id="h3IM62Ve9VoJd0DQMb7h-217" value="in" style="edgeLabel;align=center;verticalAlign=middle;resizable=0;points=[];fontSize=11;fontColor=none;labelBackgroundColor=none;" vertex="1" connectable="0" parent="h3IM62Ve9VoJd0DQMb7h-215">
          <mxGeometry x="0.2091" relative="1" as="geometry">
            <mxPoint x="-45" y="-1" as="offset" />
          </mxGeometry>
        </mxCell>
        <mxCell id="h3IM62Ve9VoJd0DQMb7h-218" value="/" style="edgeLabel;align=center;verticalAlign=middle;resizable=0;points=[];fontSize=11;fontColor=none;labelBackgroundColor=none;" vertex="1" connectable="0" parent="h3IM62Ve9VoJd0DQMb7h-215">
          <mxGeometry x="-0.1266" y="1" relative="1" as="geometry">
            <mxPoint as="offset" />
          </mxGeometry>
        </mxCell>
        <mxCell id="h3IM62Ve9VoJd0DQMb7h-219" value="6" style="edgeLabel;align=center;verticalAlign=bottom;resizable=0;points=[];fontSize=11;fontColor=none;" vertex="1" connectable="0" parent="h3IM62Ve9VoJd0DQMb7h-215">
          <mxGeometry x="0.073" y="-1" relative="1" as="geometry">
            <mxPoint x="2" y="-1" as="offset" />
          </mxGeometry>
        </mxCell>
        <mxCell id="h3IM62Ve9VoJd0DQMb7h-220" style="edgeStyle=none;rounded=0;orthogonalLoop=1;jettySize=auto;html=0;exitX=0.5;exitY=0;exitDx=0;exitDy=0;labelBorderColor=none;fontSize=11;fontColor=none;startArrow=none;startFill=0;endArrow=classic;endFill=1;" edge="1" parent="h3IM62Ve9VoJd0DQMb7h-211" source="h3IM62Ve9VoJd0DQMb7h-214" target="h3IM62Ve9VoJd0DQMb7h-214">
          <mxGeometry relative="1" as="geometry" />
        </mxCell>
        <mxCell id="h3IM62Ve9VoJd0DQMb7h-234" style="edgeStyle=none;rounded=0;orthogonalLoop=1;jettySize=auto;html=0;exitX=0.5;exitY=0;exitDx=0;exitDy=0;entryX=1;entryY=0.596;entryDx=0;entryDy=0;entryPerimeter=0;labelBorderColor=none;fontSize=11;fontColor=none;startArrow=none;startFill=0;endArrow=classic;endFill=1;" edge="1" parent="h3IM62Ve9VoJd0DQMb7h-211" source="h3IM62Ve9VoJd0DQMb7h-223" target="h3IM62Ve9VoJd0DQMb7h-214">
          <mxGeometry relative="1" as="geometry" />
        </mxCell>
        <mxCell id="h3IM62Ve9VoJd0DQMb7h-237" value="frac_logic" style="text;html=1;align=center;verticalAlign=middle;resizable=0;points=[];autosize=1;strokeColor=none;fillColor=none;fontSize=11;fontColor=none;labelBackgroundColor=none;labelBorderColor=none;strokeWidth=2;" vertex="1" parent="h3IM62Ve9VoJd0DQMb7h-211">
          <mxGeometry x="-56" y="-41" width="70" height="27" as="geometry" />
        </mxCell>
        <mxCell id="h3IM62Ve9VoJd0DQMb7h-288" value="" style="group;" vertex="1" connectable="0" parent="h3IM62Ve9VoJd0DQMb7h-211">
          <mxGeometry x="163" y="77" width="73" height="75" as="geometry" />
        </mxCell>
        <mxCell id="h3IM62Ve9VoJd0DQMb7h-227" value="o" style="text;html=1;align=center;verticalAlign=middle;resizable=0;points=[];autosize=1;strokeColor=none;fillColor=none;fontSize=11;fontColor=none;" vertex="1" parent="h3IM62Ve9VoJd0DQMb7h-288">
          <mxGeometry x="42.00142857142856" y="24" width="26" height="27" as="geometry" />
        </mxCell>
        <mxCell id="h3IM62Ve9VoJd0DQMb7h-223" value="mux" style="verticalLabelPosition=middle;verticalAlign=middle;html=1;shape=trapezoid;perimeter=trapezoidPerimeter;whiteSpace=wrap;size=0.23;arcSize=10;flipV=1;labelPosition=center;align=center;labelBackgroundColor=none;labelBorderColor=none;strokeColor=default;strokeWidth=2;fontSize=11;fontColor=none;fillColor=none;direction=south;" vertex="1" parent="h3IM62Ve9VoJd0DQMb7h-288">
          <mxGeometry x="7.821428571428555" width="52.142857142857146" height="75" as="geometry" />
        </mxCell>
        <mxCell id="h3IM62Ve9VoJd0DQMb7h-225" value="in2" style="text;whiteSpace=wrap;fontSize=11;fontColor=none;" vertex="1" parent="h3IM62Ve9VoJd0DQMb7h-288">
          <mxGeometry x="6.952380952380963" y="44.25" width="66.04761904761905" height="21" as="geometry" />
        </mxCell>
        <mxCell id="h3IM62Ve9VoJd0DQMb7h-224" value="in1" style="text;html=1;align=center;verticalAlign=middle;resizable=0;points=[];autosize=1;strokeColor=none;fillColor=none;fontSize=11;fontColor=none;labelBackgroundColor=none;labelBorderColor=none;strokeWidth=2;" vertex="1" parent="h3IM62Ve9VoJd0DQMb7h-288">
          <mxGeometry y="6" width="35" height="27" as="geometry" />
        </mxCell>
        <mxCell id="h3IM62Ve9VoJd0DQMb7h-221" value="out[1]" style="text;whiteSpace=wrap;fontSize=11;fontColor=none;" vertex="1" parent="h3IM62Ve9VoJd0DQMb7h-341">
          <mxGeometry x="268" y="146" width="76" height="28" as="geometry" />
        </mxCell>
        <mxCell id="h3IM62Ve9VoJd0DQMb7h-222" value="lut4_out" style="text;whiteSpace=wrap;fontSize=11;fontColor=none;" vertex="1" parent="h3IM62Ve9VoJd0DQMb7h-341">
          <mxGeometry x="267" y="26" width="76" height="28" as="geometry" />
        </mxCell>
        <mxCell id="h3IM62Ve9VoJd0DQMb7h-235" value="out[0]" style="text;whiteSpace=wrap;fontSize=11;fontColor=none;" vertex="1" parent="h3IM62Ve9VoJd0DQMb7h-341">
          <mxGeometry x="268" y="101" width="76" height="28" as="geometry" />
        </mxCell>
        <mxCell id="h3IM62Ve9VoJd0DQMb7h-342" value="" style="group;" vertex="1" connectable="0" parent="1">
          <mxGeometry x="888" y="577" width="658" height="413" as="geometry" />
        </mxCell>
        <mxCell id="h3IM62Ve9VoJd0DQMb7h-320" value="" style="rounded=0;whiteSpace=wrap;html=1;labelBackgroundColor=none;labelBorderColor=none;strokeColor=default;strokeWidth=2;fontSize=11;fontColor=none;fillColor=none;dashed=1;" vertex="1" parent="h3IM62Ve9VoJd0DQMb7h-342">
          <mxGeometry x="28" y="27" width="585" height="354" as="geometry" />
        </mxCell>
        <mxCell id="h3IM62Ve9VoJd0DQMb7h-327" style="edgeStyle=none;rounded=0;orthogonalLoop=1;jettySize=auto;html=0;exitX=0;exitY=0.5;exitDx=0;exitDy=0;entryX=-0.008;entryY=0.492;entryDx=0;entryDy=0;entryPerimeter=0;labelBorderColor=none;fontSize=11;fontColor=none;startArrow=none;startFill=0;endArrow=classic;endFill=1;" edge="1" parent="h3IM62Ve9VoJd0DQMb7h-342" source="h3IM62Ve9VoJd0DQMb7h-320" target="h3IM62Ve9VoJd0DQMb7h-238">
          <mxGeometry relative="1" as="geometry" />
        </mxCell>
        <mxCell id="h3IM62Ve9VoJd0DQMb7h-332" value="/" style="edgeLabel;align=center;verticalAlign=middle;resizable=0;points=[];fontSize=11;fontColor=none;labelBackgroundColor=none;html=1;" vertex="1" connectable="0" parent="h3IM62Ve9VoJd0DQMb7h-327">
          <mxGeometry x="-0.3444" y="-1" relative="1" as="geometry">
            <mxPoint x="10" as="offset" />
          </mxGeometry>
        </mxCell>
        <mxCell id="h3IM62Ve9VoJd0DQMb7h-333" value="6" style="edgeLabel;html=1;align=center;verticalAlign=bottom;resizable=0;points=[];fontSize=11;fontColor=none;labelBackgroundColor=none;" vertex="1" connectable="0" parent="h3IM62Ve9VoJd0DQMb7h-327">
          <mxGeometry x="0.3096" y="-1" relative="1" as="geometry">
            <mxPoint x="-8" as="offset" />
          </mxGeometry>
        </mxCell>
        <mxCell id="h3IM62Ve9VoJd0DQMb7h-277" style="edgeStyle=none;rounded=0;orthogonalLoop=1;jettySize=auto;html=0;exitX=0;exitY=0.25;exitDx=0;exitDy=0;labelBorderColor=none;fontSize=11;fontColor=none;startArrow=classic;startFill=1;endArrow=none;endFill=0;" edge="1" parent="h3IM62Ve9VoJd0DQMb7h-342" source="h3IM62Ve9VoJd0DQMb7h-146">
          <mxGeometry relative="1" as="geometry">
            <mxPoint x="228" y="73" as="targetPoint" />
          </mxGeometry>
        </mxCell>
        <mxCell id="h3IM62Ve9VoJd0DQMb7h-278" style="edgeStyle=none;rounded=0;orthogonalLoop=1;jettySize=auto;html=0;exitX=0;exitY=0.75;exitDx=0;exitDy=0;labelBorderColor=none;fontSize=11;fontColor=none;startArrow=classic;startFill=1;endArrow=none;endFill=0;" edge="1" parent="h3IM62Ve9VoJd0DQMb7h-342" source="h3IM62Ve9VoJd0DQMb7h-146">
          <mxGeometry relative="1" as="geometry">
            <mxPoint x="228" y="96" as="targetPoint" />
          </mxGeometry>
        </mxCell>
        <mxCell id="h3IM62Ve9VoJd0DQMb7h-146" value="adder0" style="rounded=0;whiteSpace=wrap;html=1;labelBackgroundColor=none;labelBorderColor=none;strokeColor=default;strokeWidth=2;fontSize=12;fontColor=none;fillColor=default;" vertex="1" parent="h3IM62Ve9VoJd0DQMb7h-342">
          <mxGeometry x="315.25" y="61" width="38.5" height="47" as="geometry" />
        </mxCell>
        <mxCell id="h3IM62Ve9VoJd0DQMb7h-240" value="" style="group;" vertex="1" connectable="0" parent="h3IM62Ve9VoJd0DQMb7h-342">
          <mxGeometry x="303" y="206.99945054945056" width="63.00483590087083" height="61.00054945054944" as="geometry" />
        </mxCell>
        <mxCell id="h3IM62Ve9VoJd0DQMb7h-156" value="Q" style="text;html=1;align=center;verticalAlign=middle;resizable=0;points=[];autosize=1;strokeColor=none;fillColor=none;fontSize=12;fontColor=none;container=0;" vertex="1" parent="h3IM62Ve9VoJd0DQMb7h-240">
          <mxGeometry x="35.00483590087083" y="18.496153846153902" width="28" height="27" as="geometry" />
        </mxCell>
        <mxCell id="h3IM62Ve9VoJd0DQMb7h-155" value="D" style="text;html=1;align=center;verticalAlign=middle;resizable=0;points=[];autosize=1;strokeColor=none;fillColor=none;fontSize=12;fontColor=none;container=0;" vertex="1" parent="h3IM62Ve9VoJd0DQMb7h-240">
          <mxGeometry width="28" height="27" as="geometry" />
        </mxCell>
        <mxCell id="h3IM62Ve9VoJd0DQMb7h-153" value="ff0" style="rounded=0;whiteSpace=wrap;html=1;labelBackgroundColor=none;labelBorderColor=none;strokeColor=default;strokeWidth=2;fontSize=12;fontColor=none;fillColor=none;movable=1;resizable=1;rotatable=1;deletable=1;editable=1;connectable=1;container=0;" vertex="1" parent="h3IM62Ve9VoJd0DQMb7h-240">
          <mxGeometry x="10.352119414410026" y="3.0005494505494426" width="45.19567505501858" height="58" as="geometry" />
        </mxCell>
        <mxCell id="h3IM62Ve9VoJd0DQMb7h-158" value="" style="triangle;whiteSpace=wrap;html=1;labelBackgroundColor=none;labelBorderColor=none;strokeColor=default;strokeWidth=2;fontSize=12;fontColor=none;fillColor=default;container=0;" vertex="1" parent="h3IM62Ve9VoJd0DQMb7h-240">
          <mxGeometry x="10.352119414410026" y="46.341208791208715" width="4.757439479475639" height="6.373626373626373" as="geometry" />
        </mxCell>
        <mxCell id="h3IM62Ve9VoJd0DQMb7h-267" value="" style="group;" vertex="1" connectable="0" parent="h3IM62Ve9VoJd0DQMb7h-342">
          <mxGeometry x="303" y="287.99945054945056" width="63.00483590087083" height="61.00054945054944" as="geometry" />
        </mxCell>
        <mxCell id="h3IM62Ve9VoJd0DQMb7h-271" value="Q" style="text;html=1;align=center;verticalAlign=middle;resizable=0;points=[];autosize=1;strokeColor=none;fillColor=none;fontSize=12;fontColor=none;container=0;" vertex="1" parent="h3IM62Ve9VoJd0DQMb7h-267">
          <mxGeometry x="35.00483590087083" y="18.496153846153902" width="28" height="27" as="geometry" />
        </mxCell>
        <mxCell id="h3IM62Ve9VoJd0DQMb7h-268" value="ff1" style="rounded=0;whiteSpace=wrap;html=1;labelBackgroundColor=none;labelBorderColor=none;strokeColor=default;strokeWidth=2;fontSize=12;fontColor=none;fillColor=none;movable=1;resizable=1;rotatable=1;deletable=1;editable=1;connectable=1;container=0;" vertex="1" parent="h3IM62Ve9VoJd0DQMb7h-267">
          <mxGeometry x="10.352119414410026" y="3.0005494505494426" width="45.19567505501858" height="58" as="geometry" />
        </mxCell>
        <mxCell id="h3IM62Ve9VoJd0DQMb7h-269" value="" style="triangle;whiteSpace=wrap;html=1;labelBackgroundColor=none;labelBorderColor=none;strokeColor=default;strokeWidth=2;fontSize=12;fontColor=none;fillColor=default;container=0;" vertex="1" parent="h3IM62Ve9VoJd0DQMb7h-267">
          <mxGeometry x="10.352119414410026" y="46.341208791208715" width="4.757439479475639" height="6.373626373626373" as="geometry" />
        </mxCell>
        <mxCell id="h3IM62Ve9VoJd0DQMb7h-270" value="D" style="text;html=1;align=center;verticalAlign=middle;resizable=0;points=[];autosize=1;strokeColor=none;fillColor=none;fontSize=12;fontColor=none;container=0;" vertex="1" parent="h3IM62Ve9VoJd0DQMb7h-267">
          <mxGeometry width="28" height="27" as="geometry" />
        </mxCell>
        <mxCell id="h3IM62Ve9VoJd0DQMb7h-273" style="edgeStyle=none;rounded=0;orthogonalLoop=1;jettySize=auto;html=0;exitX=1.004;exitY=0.547;exitDx=0;exitDy=0;labelBorderColor=none;fontSize=11;fontColor=none;startArrow=none;startFill=0;endArrow=classic;endFill=1;entryX=-0.015;entryY=0.167;entryDx=0;entryDy=0;entryPerimeter=0;exitPerimeter=0;" edge="1" parent="h3IM62Ve9VoJd0DQMb7h-342">
          <mxGeometry relative="1" as="geometry">
            <mxPoint x="312.19418428858467" y="300.14599999999996" as="targetPoint" />
            <mxPoint x="226.99999999999977" y="299.9960000000001" as="sourcePoint" />
          </mxGeometry>
        </mxCell>
        <mxCell id="h3IM62Ve9VoJd0DQMb7h-275" value="out[1]" style="edgeLabel;align=center;verticalAlign=middle;resizable=0;points=[];fontSize=11;fontColor=none;labelBackgroundColor=none;" vertex="1" connectable="0" parent="h3IM62Ve9VoJd0DQMb7h-342">
          <mxGeometry x="210.9982101791711" y="297.99909924969165" as="geometry" />
        </mxCell>
        <mxCell id="h3IM62Ve9VoJd0DQMb7h-331" style="edgeStyle=orthogonalEdgeStyle;rounded=0;orthogonalLoop=1;jettySize=auto;html=0;exitX=0.5;exitY=1;exitDx=0;exitDy=0;entryX=0.5;entryY=1;entryDx=0;entryDy=0;labelBorderColor=none;fontSize=11;fontColor=none;startArrow=none;startFill=0;endArrow=classic;endFill=1;" edge="1" parent="h3IM62Ve9VoJd0DQMb7h-342" source="h3IM62Ve9VoJd0DQMb7h-276" target="h3IM62Ve9VoJd0DQMb7h-320">
          <mxGeometry relative="1" as="geometry">
            <Array as="points">
              <mxPoint x="335" y="201" />
              <mxPoint x="389" y="201" />
              <mxPoint x="389" y="359" />
              <mxPoint x="321" y="359" />
            </Array>
          </mxGeometry>
        </mxCell>
        <mxCell id="h3IM62Ve9VoJd0DQMb7h-276" value="adder1" style="rounded=0;whiteSpace=wrap;html=1;labelBackgroundColor=none;labelBorderColor=none;strokeColor=default;strokeWidth=2;fontSize=12;fontColor=none;fillColor=default;" vertex="1" parent="h3IM62Ve9VoJd0DQMb7h-342">
          <mxGeometry x="316" y="134" width="38.5" height="47" as="geometry" />
        </mxCell>
        <mxCell id="h3IM62Ve9VoJd0DQMb7h-330" style="edgeStyle=none;rounded=0;orthogonalLoop=1;jettySize=auto;html=0;exitX=0.5;exitY=1;exitDx=0;exitDy=0;labelBorderColor=none;fontSize=11;fontColor=none;startArrow=none;startFill=0;endArrow=classic;endFill=1;" edge="1" parent="h3IM62Ve9VoJd0DQMb7h-342" source="h3IM62Ve9VoJd0DQMb7h-146" target="h3IM62Ve9VoJd0DQMb7h-276">
          <mxGeometry relative="1" as="geometry" />
        </mxCell>
        <mxCell id="h3IM62Ve9VoJd0DQMb7h-279" style="edgeStyle=none;rounded=0;orthogonalLoop=1;jettySize=auto;html=0;exitX=0;exitY=0.25;exitDx=0;exitDy=0;labelBorderColor=none;fontSize=11;fontColor=none;startArrow=classic;startFill=1;endArrow=none;endFill=0;" edge="1" parent="h3IM62Ve9VoJd0DQMb7h-342">
          <mxGeometry relative="1" as="geometry">
            <mxPoint x="315.25" y="145.74000000000012" as="sourcePoint" />
            <mxPoint x="228" y="145.99" as="targetPoint" />
          </mxGeometry>
        </mxCell>
        <mxCell id="h3IM62Ve9VoJd0DQMb7h-280" style="edgeStyle=none;rounded=0;orthogonalLoop=1;jettySize=auto;html=0;exitX=0;exitY=0.75;exitDx=0;exitDy=0;labelBorderColor=none;fontSize=11;fontColor=none;startArrow=classic;startFill=1;endArrow=none;endFill=0;" edge="1" parent="h3IM62Ve9VoJd0DQMb7h-342">
          <mxGeometry relative="1" as="geometry">
            <mxPoint x="315.25" y="169.24" as="sourcePoint" />
            <mxPoint x="228" y="168.99" as="targetPoint" />
          </mxGeometry>
        </mxCell>
        <mxCell id="h3IM62Ve9VoJd0DQMb7h-281" value="lut4_out[0]" style="edgeLabel;align=center;verticalAlign=middle;resizable=0;points=[];fontSize=11;fontColor=none;labelBackgroundColor=none;" vertex="1" connectable="0" parent="h3IM62Ve9VoJd0DQMb7h-342">
          <mxGeometry x="194.99820986917098" y="218.9994513858586" as="geometry">
            <mxPoint x="4" y="-146" as="offset" />
          </mxGeometry>
        </mxCell>
        <mxCell id="h3IM62Ve9VoJd0DQMb7h-285" value="lut4_out[1]" style="edgeLabel;align=center;verticalAlign=middle;resizable=0;points=[];fontSize=11;fontColor=none;labelBackgroundColor=none;" vertex="1" connectable="0" parent="h3IM62Ve9VoJd0DQMb7h-342">
          <mxGeometry x="194.99820986917098" y="239.9994513858586" as="geometry">
            <mxPoint x="4" y="-146" as="offset" />
          </mxGeometry>
        </mxCell>
        <mxCell id="h3IM62Ve9VoJd0DQMb7h-286" value="lut4_out[2]" style="edgeLabel;align=center;verticalAlign=middle;resizable=0;points=[];fontSize=11;fontColor=none;labelBackgroundColor=none;" vertex="1" connectable="0" parent="h3IM62Ve9VoJd0DQMb7h-342">
          <mxGeometry x="194.99820986917098" y="289.9994513858586" as="geometry">
            <mxPoint x="4" y="-146" as="offset" />
          </mxGeometry>
        </mxCell>
        <mxCell id="h3IM62Ve9VoJd0DQMb7h-287" value="lut4_out[3]" style="edgeLabel;align=center;verticalAlign=middle;resizable=0;points=[];fontSize=11;fontColor=none;labelBackgroundColor=none;" vertex="1" connectable="0" parent="h3IM62Ve9VoJd0DQMb7h-342">
          <mxGeometry x="194.99820986917098" y="312.9994513858586" as="geometry">
            <mxPoint x="4" y="-146" as="offset" />
          </mxGeometry>
        </mxCell>
        <mxCell id="h3IM62Ve9VoJd0DQMb7h-302" value="" style="group;" vertex="1" connectable="0" parent="h3IM62Ve9VoJd0DQMb7h-342">
          <mxGeometry x="468" y="60" width="92.00111111111119" height="129" as="geometry" />
        </mxCell>
        <mxCell id="h3IM62Ve9VoJd0DQMb7h-290" value="in1" style="text;html=1;align=center;verticalAlign=middle;resizable=0;points=[];autosize=1;strokeColor=none;fillColor=none;fontSize=11;fontColor=none;" vertex="1" parent="h3IM62Ve9VoJd0DQMb7h-302">
          <mxGeometry x="1" y="11" width="35" height="27" as="geometry" />
        </mxCell>
        <mxCell id="h3IM62Ve9VoJd0DQMb7h-291" value="in3" style="text;html=1;align=center;verticalAlign=middle;resizable=0;points=[];autosize=1;strokeColor=none;fillColor=none;fontSize=11;fontColor=none;" vertex="1" parent="h3IM62Ve9VoJd0DQMb7h-302">
          <mxGeometry x="1" y="93" width="35" height="27" as="geometry" />
        </mxCell>
        <mxCell id="h3IM62Ve9VoJd0DQMb7h-292" value="o" style="text;html=1;align=center;verticalAlign=middle;resizable=0;points=[];autosize=1;strokeColor=none;fillColor=none;fontSize=11;fontColor=none;" vertex="1" parent="h3IM62Ve9VoJd0DQMb7h-302">
          <mxGeometry x="66.00111111111119" y="51" width="26" height="27" as="geometry" />
        </mxCell>
        <mxCell id="h3IM62Ve9VoJd0DQMb7h-301" value="in2" style="text;html=1;align=center;verticalAlign=middle;resizable=0;points=[];autosize=1;strokeColor=none;fillColor=none;fontSize=11;fontColor=none;labelBackgroundColor=none;labelBorderColor=none;strokeWidth=2;" vertex="1" parent="h3IM62Ve9VoJd0DQMb7h-302">
          <mxGeometry y="52" width="35" height="27" as="geometry" />
        </mxCell>
        <mxCell id="h3IM62Ve9VoJd0DQMb7h-289" value="mux1" style="verticalLabelPosition=middle;verticalAlign=middle;html=1;shape=trapezoid;perimeter=trapezoidPerimeter;whiteSpace=wrap;size=0.23;arcSize=10;flipV=1;labelPosition=center;align=center;labelBackgroundColor=none;labelBorderColor=none;strokeColor=default;strokeWidth=2;fontSize=11;fontColor=none;fillColor=none;direction=south;" vertex="1" parent="h3IM62Ve9VoJd0DQMb7h-302">
          <mxGeometry x="8.166666666666742" width="81.66666666666666" height="129" as="geometry" />
        </mxCell>
        <mxCell id="h3IM62Ve9VoJd0DQMb7h-314" style="edgeStyle=orthogonalEdgeStyle;rounded=0;orthogonalLoop=1;jettySize=auto;html=0;exitX=0.176;exitY=1.016;exitDx=0;exitDy=0;labelBorderColor=none;fontSize=11;fontColor=none;startArrow=classic;startFill=1;endArrow=none;endFill=0;exitPerimeter=0;" edge="1" parent="h3IM62Ve9VoJd0DQMb7h-342" source="h3IM62Ve9VoJd0DQMb7h-289">
          <mxGeometry relative="1" as="geometry">
            <mxPoint x="267" y="219" as="targetPoint" />
            <Array as="points">
              <mxPoint x="426" y="166" />
              <mxPoint x="426" y="190" />
              <mxPoint x="267" y="190" />
            </Array>
          </mxGeometry>
        </mxCell>
        <mxCell id="h3IM62Ve9VoJd0DQMb7h-315" style="edgeStyle=orthogonalEdgeStyle;rounded=0;orthogonalLoop=1;jettySize=auto;html=0;exitX=1;exitY=0.5;exitDx=0;exitDy=0;entryX=0.5;entryY=1;entryDx=0;entryDy=0;labelBorderColor=none;fontSize=11;fontColor=none;startArrow=none;startFill=0;endArrow=classic;endFill=1;" edge="1" parent="h3IM62Ve9VoJd0DQMb7h-342" source="h3IM62Ve9VoJd0DQMb7h-153" target="h3IM62Ve9VoJd0DQMb7h-289">
          <mxGeometry relative="1" as="geometry" />
        </mxCell>
        <mxCell id="h3IM62Ve9VoJd0DQMb7h-303" value="" style="group;" vertex="1" connectable="0" parent="h3IM62Ve9VoJd0DQMb7h-342">
          <mxGeometry x="468" y="214" width="92.00111111111119" height="129" as="geometry" />
        </mxCell>
        <mxCell id="h3IM62Ve9VoJd0DQMb7h-306" value="o" style="text;html=1;align=center;verticalAlign=middle;resizable=0;points=[];autosize=1;strokeColor=none;fillColor=none;fontSize=11;fontColor=none;" vertex="1" parent="h3IM62Ve9VoJd0DQMb7h-303">
          <mxGeometry x="66.00111111111119" y="51" width="26" height="27" as="geometry" />
        </mxCell>
        <mxCell id="h3IM62Ve9VoJd0DQMb7h-305" value="in3" style="text;html=1;align=center;verticalAlign=middle;resizable=0;points=[];autosize=1;strokeColor=none;fillColor=none;fontSize=11;fontColor=none;" vertex="1" parent="h3IM62Ve9VoJd0DQMb7h-303">
          <mxGeometry x="1" y="93" width="35" height="27" as="geometry" />
        </mxCell>
        <mxCell id="h3IM62Ve9VoJd0DQMb7h-308" value="mux1" style="verticalLabelPosition=middle;verticalAlign=middle;html=1;shape=trapezoid;perimeter=trapezoidPerimeter;whiteSpace=wrap;size=0.23;arcSize=10;flipV=1;labelPosition=center;align=center;labelBackgroundColor=none;labelBorderColor=none;strokeColor=default;strokeWidth=2;fontSize=11;fontColor=none;fillColor=none;direction=south;" vertex="1" parent="h3IM62Ve9VoJd0DQMb7h-303">
          <mxGeometry x="8.166666666666742" width="81.66666666666666" height="129" as="geometry" />
        </mxCell>
        <mxCell id="h3IM62Ve9VoJd0DQMb7h-304" value="in1" style="text;html=1;align=center;verticalAlign=middle;resizable=0;points=[];autosize=1;strokeColor=none;fillColor=none;fontSize=11;fontColor=none;" vertex="1" parent="h3IM62Ve9VoJd0DQMb7h-303">
          <mxGeometry x="1" y="11" width="35" height="27" as="geometry" />
        </mxCell>
        <mxCell id="h3IM62Ve9VoJd0DQMb7h-307" value="in2" style="text;html=1;align=center;verticalAlign=middle;resizable=0;points=[];autosize=1;strokeColor=none;fillColor=none;fontSize=11;fontColor=none;labelBackgroundColor=none;labelBorderColor=none;strokeWidth=2;" vertex="1" parent="h3IM62Ve9VoJd0DQMb7h-303">
          <mxGeometry y="52" width="35" height="27" as="geometry" />
        </mxCell>
        <mxCell id="h3IM62Ve9VoJd0DQMb7h-318" style="edgeStyle=orthogonalEdgeStyle;rounded=0;orthogonalLoop=1;jettySize=auto;html=0;exitX=1;exitY=0.5;exitDx=0;exitDy=0;entryX=0.5;entryY=1;entryDx=0;entryDy=0;labelBorderColor=none;fontSize=11;fontColor=none;startArrow=none;startFill=0;endArrow=classic;endFill=1;" edge="1" parent="h3IM62Ve9VoJd0DQMb7h-342" source="h3IM62Ve9VoJd0DQMb7h-268" target="h3IM62Ve9VoJd0DQMb7h-308">
          <mxGeometry relative="1" as="geometry" />
        </mxCell>
        <mxCell id="h3IM62Ve9VoJd0DQMb7h-319" style="edgeStyle=orthogonalEdgeStyle;rounded=0;orthogonalLoop=1;jettySize=auto;html=0;exitX=0.75;exitY=1;exitDx=0;exitDy=0;labelBorderColor=none;fontSize=11;fontColor=none;startArrow=classic;startFill=1;endArrow=none;endFill=0;" edge="1" parent="h3IM62Ve9VoJd0DQMb7h-342" source="h3IM62Ve9VoJd0DQMb7h-308">
          <mxGeometry relative="1" as="geometry">
            <mxPoint x="266" y="300" as="targetPoint" />
            <Array as="points">
              <mxPoint x="370" y="311" />
              <mxPoint x="370" y="277" />
              <mxPoint x="266" y="277" />
            </Array>
          </mxGeometry>
        </mxCell>
        <mxCell id="h3IM62Ve9VoJd0DQMb7h-321" style="rounded=0;orthogonalLoop=1;jettySize=auto;html=0;exitX=0.5;exitY=0;exitDx=0;exitDy=0;labelBorderColor=none;fontSize=11;fontColor=none;startArrow=none;startFill=0;endArrow=classic;endFill=1;" edge="1" parent="h3IM62Ve9VoJd0DQMb7h-342" source="h3IM62Ve9VoJd0DQMb7h-289">
          <mxGeometry relative="1" as="geometry">
            <mxPoint x="611" y="125" as="targetPoint" />
          </mxGeometry>
        </mxCell>
        <mxCell id="h3IM62Ve9VoJd0DQMb7h-325" style="edgeStyle=none;rounded=0;orthogonalLoop=1;jettySize=auto;html=0;exitX=0.5;exitY=0;exitDx=0;exitDy=0;entryX=1;entryY=0.712;entryDx=0;entryDy=0;entryPerimeter=0;labelBorderColor=none;fontSize=11;fontColor=none;startArrow=none;startFill=0;endArrow=classic;endFill=1;" edge="1" parent="h3IM62Ve9VoJd0DQMb7h-342" source="h3IM62Ve9VoJd0DQMb7h-308" target="h3IM62Ve9VoJd0DQMb7h-320">
          <mxGeometry relative="1" as="geometry" />
        </mxCell>
        <mxCell id="h3IM62Ve9VoJd0DQMb7h-309" style="edgeStyle=none;rounded=0;orthogonalLoop=1;jettySize=auto;html=0;exitX=1;exitY=0.5;exitDx=0;exitDy=0;entryX=0.807;entryY=0.995;entryDx=0;entryDy=0;entryPerimeter=0;labelBorderColor=none;fontSize=11;fontColor=none;startArrow=none;startFill=0;endArrow=classic;endFill=1;" edge="1" parent="h3IM62Ve9VoJd0DQMb7h-342" source="h3IM62Ve9VoJd0DQMb7h-146" target="h3IM62Ve9VoJd0DQMb7h-289">
          <mxGeometry relative="1" as="geometry" />
        </mxCell>
        <mxCell id="h3IM62Ve9VoJd0DQMb7h-326" style="edgeStyle=none;rounded=0;orthogonalLoop=1;jettySize=auto;html=0;exitX=0;exitY=0.5;exitDx=0;exitDy=0;labelBorderColor=none;fontSize=11;fontColor=none;startArrow=none;startFill=0;endArrow=classic;endFill=1;" edge="1" parent="h3IM62Ve9VoJd0DQMb7h-342" source="h3IM62Ve9VoJd0DQMb7h-320" target="h3IM62Ve9VoJd0DQMb7h-320">
          <mxGeometry relative="1" as="geometry" />
        </mxCell>
        <mxCell id="h3IM62Ve9VoJd0DQMb7h-238" value="frac_logic" style="rounded=0;whiteSpace=wrap;html=1;labelBackgroundColor=none;labelBorderColor=none;strokeColor=default;strokeWidth=2;fontSize=11;fontColor=none;fillColor=none;" vertex="1" parent="h3IM62Ve9VoJd0DQMb7h-342">
          <mxGeometry x="107" y="62" width="120" height="288" as="geometry" />
        </mxCell>
        <mxCell id="h3IM62Ve9VoJd0DQMb7h-317" style="edgeStyle=orthogonalEdgeStyle;rounded=0;orthogonalLoop=1;jettySize=auto;html=0;exitX=1;exitY=0.5;exitDx=0;exitDy=0;entryX=0.806;entryY=1.004;entryDx=0;entryDy=0;entryPerimeter=0;labelBorderColor=none;fontSize=11;fontColor=none;startArrow=none;startFill=0;endArrow=classic;endFill=1;" edge="1" parent="h3IM62Ve9VoJd0DQMb7h-342" source="h3IM62Ve9VoJd0DQMb7h-276" target="h3IM62Ve9VoJd0DQMb7h-308">
          <mxGeometry relative="1" as="geometry">
            <Array as="points">
              <mxPoint x="407" y="158" />
              <mxPoint x="407" y="226" />
              <mxPoint x="426" y="226" />
              <mxPoint x="426" y="239" />
            </Array>
          </mxGeometry>
        </mxCell>
        <mxCell id="h3IM62Ve9VoJd0DQMb7h-328" style="edgeStyle=none;rounded=0;orthogonalLoop=1;jettySize=auto;html=0;exitX=0.5;exitY=0;exitDx=0;exitDy=0;labelBorderColor=none;fontSize=11;fontColor=none;startArrow=none;startFill=0;endArrow=classic;endFill=1;" edge="1" parent="h3IM62Ve9VoJd0DQMb7h-342" source="h3IM62Ve9VoJd0DQMb7h-320" target="h3IM62Ve9VoJd0DQMb7h-320">
          <mxGeometry relative="1" as="geometry" />
        </mxCell>
        <mxCell id="h3IM62Ve9VoJd0DQMb7h-272" style="edgeStyle=none;rounded=0;orthogonalLoop=1;jettySize=auto;html=0;exitX=1.004;exitY=0.547;exitDx=0;exitDy=0;labelBorderColor=none;fontSize=11;fontColor=none;startArrow=none;startFill=0;endArrow=classic;endFill=1;entryX=-0.015;entryY=0.167;entryDx=0;entryDy=0;entryPerimeter=0;exitPerimeter=0;" edge="1" parent="h3IM62Ve9VoJd0DQMb7h-342" source="h3IM62Ve9VoJd0DQMb7h-238" target="h3IM62Ve9VoJd0DQMb7h-153">
          <mxGeometry relative="1" as="geometry">
            <mxPoint x="252" y="213" as="targetPoint" />
          </mxGeometry>
        </mxCell>
        <mxCell id="h3IM62Ve9VoJd0DQMb7h-274" value="out[0]" style="edgeLabel;align=center;verticalAlign=middle;resizable=0;points=[];fontSize=11;fontColor=none;labelBackgroundColor=none;" vertex="1" connectable="0" parent="h3IM62Ve9VoJd0DQMb7h-272">
          <mxGeometry x="-0.5558" y="-1" relative="1" as="geometry">
            <mxPoint x="-35" y="-2" as="offset" />
          </mxGeometry>
        </mxCell>
        <mxCell id="h3IM62Ve9VoJd0DQMb7h-329" style="edgeStyle=none;rounded=0;orthogonalLoop=1;jettySize=auto;html=0;exitX=0.523;exitY=0;exitDx=0;exitDy=0;entryX=0.523;entryY=0.096;entryDx=0;entryDy=0;entryPerimeter=0;labelBorderColor=none;fontSize=11;fontColor=none;startArrow=none;startFill=0;endArrow=classic;endFill=1;exitPerimeter=0;" edge="1" parent="h3IM62Ve9VoJd0DQMb7h-342" source="h3IM62Ve9VoJd0DQMb7h-320" target="h3IM62Ve9VoJd0DQMb7h-320">
          <mxGeometry relative="1" as="geometry" />
        </mxCell>
        <mxCell id="h3IM62Ve9VoJd0DQMb7h-334" value="in" style="text;html=1;align=center;verticalAlign=middle;resizable=0;points=[];autosize=1;strokeColor=none;fillColor=none;fontSize=11;fontColor=none;" vertex="1" parent="h3IM62Ve9VoJd0DQMb7h-342">
          <mxGeometry x="103" y="190.5" width="28" height="27" as="geometry" />
        </mxCell>
        <mxCell id="h3IM62Ve9VoJd0DQMb7h-335" value="in" style="text;html=1;align=center;verticalAlign=middle;resizable=0;points=[];autosize=1;strokeColor=none;fillColor=none;fontSize=11;fontColor=none;" vertex="1" parent="h3IM62Ve9VoJd0DQMb7h-342">
          <mxGeometry y="190.5" width="28" height="27" as="geometry" />
        </mxCell>
        <mxCell id="h3IM62Ve9VoJd0DQMb7h-336" value="out[0]" style="text;html=1;align=center;verticalAlign=middle;resizable=0;points=[];autosize=1;strokeColor=none;fillColor=none;fontSize=11;fontColor=none;" vertex="1" parent="h3IM62Ve9VoJd0DQMb7h-342">
          <mxGeometry x="607" y="110" width="49" height="27" as="geometry" />
        </mxCell>
        <mxCell id="h3IM62Ve9VoJd0DQMb7h-337" value="out[1]" style="text;html=1;align=center;verticalAlign=middle;resizable=0;points=[];autosize=1;strokeColor=none;fillColor=none;fontSize=11;fontColor=none;" vertex="1" parent="h3IM62Ve9VoJd0DQMb7h-342">
          <mxGeometry x="609" y="265" width="49" height="27" as="geometry" />
        </mxCell>
        <mxCell id="h3IM62Ve9VoJd0DQMb7h-338" value="cout" style="text;html=1;align=center;verticalAlign=middle;resizable=0;points=[];autosize=1;strokeColor=none;fillColor=none;fontSize=11;fontColor=none;" vertex="1" parent="h3IM62Ve9VoJd0DQMb7h-342">
          <mxGeometry x="299.5" y="386" width="42" height="27" as="geometry" />
        </mxCell>
        <mxCell id="h3IM62Ve9VoJd0DQMb7h-339" value="cin" style="text;html=1;align=center;verticalAlign=middle;resizable=0;points=[];autosize=1;strokeColor=none;fillColor=none;fontSize=11;fontColor=none;" vertex="1" parent="h3IM62Ve9VoJd0DQMb7h-342">
          <mxGeometry x="318.25" width="34" height="27" as="geometry" />
        </mxCell>
        <mxCell id="h3IM62Ve9VoJd0DQMb7h-340" value="fabric" style="text;html=1;align=center;verticalAlign=middle;resizable=0;points=[];autosize=1;strokeColor=none;fillColor=none;fontSize=11;fontColor=none;" vertex="1" parent="h3IM62Ve9VoJd0DQMb7h-342">
          <mxGeometry x="38" y="36" width="48" height="27" as="geometry" />
        </mxCell>
        <mxCell id="h3IM62Ve9VoJd0DQMb7h-344" value="" style="group;" vertex="1" connectable="0" parent="1">
          <mxGeometry x="914" y="12" width="605" height="516" as="geometry" />
        </mxCell>
        <mxCell id="h3IM62Ve9VoJd0DQMb7h-128" value="&lt;font style=&quot;font-size: 12px;&quot;&gt;carry out&lt;/font&gt;" style="text;html=1;align=center;verticalAlign=middle;resizable=0;points=[];autosize=1;strokeColor=none;fillColor=none;fontSize=18;fontColor=none;" vertex="1" parent="h3IM62Ve9VoJd0DQMb7h-344">
          <mxGeometry x="336.5" y="481" width="66" height="35" as="geometry" />
        </mxCell>
        <mxCell id="h3IM62Ve9VoJd0DQMb7h-343" value="" style="group;" vertex="1" connectable="0" parent="h3IM62Ve9VoJd0DQMb7h-344">
          <mxGeometry width="605" height="478" as="geometry" />
        </mxCell>
        <mxCell id="h3IM62Ve9VoJd0DQMb7h-74" value="" style="group;horizontal=1;" vertex="1" connectable="0" parent="h3IM62Ve9VoJd0DQMb7h-343">
          <mxGeometry y="38" width="605" height="440" as="geometry" />
        </mxCell>
        <mxCell id="h3IM62Ve9VoJd0DQMb7h-63" value="" style="group;fontStyle=0;fontSize=18;strokeWidth=2;fillColor=none;perimeterSpacing=5;strokeColor=default;dashed=1;fontColor=none;noLabel=1;" vertex="1" connectable="0" parent="h3IM62Ve9VoJd0DQMb7h-74">
          <mxGeometry x="98.24786324786325" width="424.01709401709394" height="440" as="geometry" />
        </mxCell>
        <mxCell id="h3IM62Ve9VoJd0DQMb7h-57" style="edgeStyle=orthogonalEdgeStyle;rounded=0;orthogonalLoop=1;jettySize=auto;html=0;exitX=1;exitY=0.5;exitDx=0;exitDy=0;labelBorderColor=none;startArrow=none;startFill=0;endArrow=classic;endFill=1;" edge="1" parent="h3IM62Ve9VoJd0DQMb7h-63" source="h3IM62Ve9VoJd0DQMb7h-3">
          <mxGeometry relative="1" as="geometry">
            <mxPoint x="424.01709401709394" y="190" as="targetPoint" />
            <Array as="points">
              <mxPoint x="424.01709401709394" y="190" />
            </Array>
          </mxGeometry>
        </mxCell>
        <mxCell id="h3IM62Ve9VoJd0DQMb7h-123" style="edgeStyle=none;rounded=0;orthogonalLoop=1;jettySize=auto;html=0;exitX=0.25;exitY=1;exitDx=0;exitDy=0;entryX=0.25;entryY=0;entryDx=0;entryDy=0;labelBorderColor=none;fontSize=18;fontColor=none;startArrow=none;startFill=0;endArrow=classic;endFill=1;" edge="1" parent="h3IM62Ve9VoJd0DQMb7h-63">
          <mxGeometry relative="1" as="geometry">
            <mxPoint x="270.8888888888888" y="120" as="sourcePoint" />
            <mxPoint x="270.8888888888888" y="160" as="targetPoint" />
          </mxGeometry>
        </mxCell>
        <mxCell id="h3IM62Ve9VoJd0DQMb7h-2" value="fle0" style="rounded=0;whiteSpace=wrap;html=1;" vertex="1" parent="h3IM62Ve9VoJd0DQMb7h-63">
          <mxGeometry x="237.86324786324786" y="60" width="124.10256410256406" height="60" as="geometry" />
        </mxCell>
        <mxCell id="h3IM62Ve9VoJd0DQMb7h-124" style="edgeStyle=none;rounded=0;orthogonalLoop=1;jettySize=auto;html=0;exitX=0.25;exitY=1;exitDx=0;exitDy=0;entryX=0.25;entryY=0;entryDx=0;entryDy=0;labelBorderColor=none;fontSize=18;fontColor=none;startArrow=none;startFill=0;endArrow=classic;endFill=1;" edge="1" parent="h3IM62Ve9VoJd0DQMb7h-63">
          <mxGeometry relative="1" as="geometry">
            <mxPoint x="270.8888888888888" y="220" as="sourcePoint" />
            <mxPoint x="270.8888888888888" y="260" as="targetPoint" />
          </mxGeometry>
        </mxCell>
        <mxCell id="h3IM62Ve9VoJd0DQMb7h-3" value="fle1" style="whiteSpace=wrap;html=1;" vertex="1" parent="h3IM62Ve9VoJd0DQMb7h-63">
          <mxGeometry x="237.86324786324786" y="160" width="124.10256410256406" height="60" as="geometry" />
        </mxCell>
        <mxCell id="h3IM62Ve9VoJd0DQMb7h-4" value="fle9" style="rounded=0;whiteSpace=wrap;html=1;" vertex="1" parent="h3IM62Ve9VoJd0DQMb7h-63">
          <mxGeometry x="237.86324786324786" y="360" width="124.10256410256406" height="60" as="geometry" />
        </mxCell>
        <mxCell id="h3IM62Ve9VoJd0DQMb7h-14" value="" style="edgeStyle=orthogonalEdgeStyle;rounded=0;orthogonalLoop=1;jettySize=auto;exitX=1;exitY=0.5;exitDx=0;exitDy=0;endArrow=classic;endFill=1;startArrow=none;startFill=0;horizontal=1;labelBorderColor=none;verticalAlign=bottom;" edge="1" parent="h3IM62Ve9VoJd0DQMb7h-63" source="h3IM62Ve9VoJd0DQMb7h-5">
          <mxGeometry relative="1" as="geometry">
            <mxPoint x="175.81196581196576" y="240" as="targetPoint" />
            <Array as="points">
              <mxPoint x="392.991452991453" y="290" />
              <mxPoint x="392.991452991453" y="240" />
            </Array>
          </mxGeometry>
        </mxCell>
        <mxCell id="h3IM62Ve9VoJd0DQMb7h-15" value="&lt;h3&gt;/&lt;/h3&gt;" style="edgeLabel;html=1;align=center;verticalAlign=middle;resizable=0;points=[];fontStyle=1;labelBackgroundColor=none;" vertex="1" connectable="0" parent="h3IM62Ve9VoJd0DQMb7h-14">
          <mxGeometry x="0.3724" y="-1" relative="1" as="geometry">
            <mxPoint x="27" as="offset" />
          </mxGeometry>
        </mxCell>
        <mxCell id="h3IM62Ve9VoJd0DQMb7h-17" value="2" style="edgeLabel;html=1;align=center;verticalAlign=bottom;resizable=0;points=[];labelBackgroundColor=none;" vertex="1" connectable="0" parent="h3IM62Ve9VoJd0DQMb7h-14">
          <mxGeometry x="-0.2479" y="2" relative="1" as="geometry">
            <mxPoint x="-54" as="offset" />
          </mxGeometry>
        </mxCell>
        <mxCell id="h3IM62Ve9VoJd0DQMb7h-125" style="edgeStyle=none;rounded=0;orthogonalLoop=1;jettySize=auto;html=0;exitX=0.25;exitY=1;exitDx=0;exitDy=0;entryX=0.25;entryY=0;entryDx=0;entryDy=0;labelBorderColor=none;fontSize=18;fontColor=none;startArrow=none;startFill=0;endArrow=classic;endFill=1;" edge="1" parent="h3IM62Ve9VoJd0DQMb7h-63">
          <mxGeometry relative="1" as="geometry">
            <mxPoint x="270.8888888888888" y="320" as="sourcePoint" />
            <mxPoint x="270.8888888888888" y="360" as="targetPoint" />
          </mxGeometry>
        </mxCell>
        <mxCell id="h3IM62Ve9VoJd0DQMb7h-5" value="fle2" style="rounded=0;whiteSpace=wrap;html=1;" vertex="1" parent="h3IM62Ve9VoJd0DQMb7h-63">
          <mxGeometry x="237.86324786324786" y="260" width="124.10256410256406" height="60" as="geometry" />
        </mxCell>
        <mxCell id="h3IM62Ve9VoJd0DQMb7h-31" style="edgeStyle=orthogonalEdgeStyle;rounded=0;orthogonalLoop=1;jettySize=auto;html=0;labelBorderColor=none;startArrow=none;startFill=0;endArrow=classic;endFill=1;" edge="1" parent="h3IM62Ve9VoJd0DQMb7h-63">
          <mxGeometry relative="1" as="geometry">
            <mxPoint x="103.41880341880342" y="60.19047619047615" as="targetPoint" />
            <mxPoint x="103.41880341880342" y="60" as="sourcePoint" />
          </mxGeometry>
        </mxCell>
        <mxCell id="h3IM62Ve9VoJd0DQMb7h-12" value="" style="rounded=0;whiteSpace=wrap;html=1;" vertex="1" parent="h3IM62Ve9VoJd0DQMb7h-63">
          <mxGeometry x="51.70940170940171" y="60" width="124.10256410256406" height="360" as="geometry" />
        </mxCell>
        <mxCell id="h3IM62Ve9VoJd0DQMb7h-18" value="" style="edgeStyle=orthogonalEdgeStyle;rounded=0;orthogonalLoop=1;jettySize=auto;entryX=1.008;entryY=0.193;entryDx=0;entryDy=0;entryPerimeter=0;endArrow=classic;endFill=1;startArrow=none;startFill=0;horizontal=1;labelBorderColor=none;verticalAlign=bottom;exitX=1;exitY=0.5;exitDx=0;exitDy=0;" edge="1" parent="h3IM62Ve9VoJd0DQMb7h-63" source="h3IM62Ve9VoJd0DQMb7h-3">
          <mxGeometry relative="1" as="geometry">
            <mxPoint x="175.8119658119658" y="149.99999999999997" as="targetPoint" />
            <mxPoint x="372.3076923076922" y="195" as="sourcePoint" />
            <Array as="points">
              <mxPoint x="392.991452991453" y="190" />
              <mxPoint x="392.991452991453" y="150" />
            </Array>
          </mxGeometry>
        </mxCell>
        <mxCell id="h3IM62Ve9VoJd0DQMb7h-19" value="&lt;h3&gt;/&lt;/h3&gt;" style="edgeLabel;html=1;align=center;verticalAlign=middle;resizable=0;points=[];fontStyle=1;labelBackgroundColor=none;" vertex="1" connectable="0" parent="h3IM62Ve9VoJd0DQMb7h-18">
          <mxGeometry x="0.3724" y="-1" relative="1" as="geometry">
            <mxPoint x="27" as="offset" />
          </mxGeometry>
        </mxCell>
        <mxCell id="h3IM62Ve9VoJd0DQMb7h-20" value="2" style="edgeLabel;html=1;align=center;verticalAlign=bottom;resizable=0;points=[];labelBackgroundColor=none;" vertex="1" connectable="0" parent="h3IM62Ve9VoJd0DQMb7h-18">
          <mxGeometry x="-0.2479" y="2" relative="1" as="geometry">
            <mxPoint x="-54" as="offset" />
          </mxGeometry>
        </mxCell>
        <mxCell id="h3IM62Ve9VoJd0DQMb7h-21" value="" style="edgeStyle=orthogonalEdgeStyle;rounded=0;orthogonalLoop=1;jettySize=auto;endArrow=classic;endFill=1;startArrow=none;startFill=0;horizontal=1;labelBorderColor=none;verticalAlign=bottom;exitX=1;exitY=0.5;exitDx=0;exitDy=0;" edge="1" parent="h3IM62Ve9VoJd0DQMb7h-63" source="h3IM62Ve9VoJd0DQMb7h-2" target="h3IM62Ve9VoJd0DQMb7h-12">
          <mxGeometry relative="1" as="geometry">
            <mxPoint x="103.41880341880342" y="50" as="targetPoint" />
            <mxPoint x="372.3076923076922" y="95" as="sourcePoint" />
            <Array as="points">
              <mxPoint x="391.95726495726495" y="90" />
              <mxPoint x="391.95726495726495" y="30" />
              <mxPoint x="113.76068376068376" y="30" />
            </Array>
          </mxGeometry>
        </mxCell>
        <mxCell id="h3IM62Ve9VoJd0DQMb7h-22" value="&lt;h3&gt;/&lt;/h3&gt;" style="edgeLabel;html=1;align=center;verticalAlign=middle;resizable=0;points=[];fontStyle=1;labelBackgroundColor=none;" vertex="1" connectable="0" parent="h3IM62Ve9VoJd0DQMb7h-21">
          <mxGeometry x="0.3724" y="-1" relative="1" as="geometry">
            <mxPoint x="87" as="offset" />
          </mxGeometry>
        </mxCell>
        <mxCell id="h3IM62Ve9VoJd0DQMb7h-23" value="2" style="edgeLabel;html=1;align=center;verticalAlign=bottom;resizable=0;points=[];labelBackgroundColor=none;" vertex="1" connectable="0" parent="h3IM62Ve9VoJd0DQMb7h-21">
          <mxGeometry x="-0.2479" y="2" relative="1" as="geometry">
            <mxPoint x="-29" as="offset" />
          </mxGeometry>
        </mxCell>
        <mxCell id="h3IM62Ve9VoJd0DQMb7h-26" value="" style="edgeStyle=orthogonalEdgeStyle;rounded=0;orthogonalLoop=1;jettySize=auto;entryX=1.002;entryY=0.79;entryDx=0;entryDy=0;entryPerimeter=0;endArrow=classic;endFill=1;startArrow=none;startFill=0;horizontal=1;labelBorderColor=none;verticalAlign=bottom;exitX=1.005;exitY=0.582;exitDx=0;exitDy=0;exitPerimeter=0;" edge="1" parent="h3IM62Ve9VoJd0DQMb7h-63" source="h3IM62Ve9VoJd0DQMb7h-4" target="h3IM62Ve9VoJd0DQMb7h-36">
          <mxGeometry relative="1" as="geometry">
            <mxPoint x="175.8119658119658" y="350" as="targetPoint" />
            <mxPoint x="372.3076923076922" y="395" as="sourcePoint" />
            <Array as="points">
              <mxPoint x="392" y="395" />
              <mxPoint x="392" y="344" />
              <mxPoint x="176" y="344" />
            </Array>
          </mxGeometry>
        </mxCell>
        <mxCell id="h3IM62Ve9VoJd0DQMb7h-27" value="&lt;h3&gt;/&lt;/h3&gt;" style="edgeLabel;html=1;align=center;verticalAlign=middle;resizable=0;points=[];fontStyle=1;labelBackgroundColor=none;" vertex="1" connectable="0" parent="h3IM62Ve9VoJd0DQMb7h-26">
          <mxGeometry x="0.3724" y="-1" relative="1" as="geometry">
            <mxPoint x="27" as="offset" />
          </mxGeometry>
        </mxCell>
        <mxCell id="h3IM62Ve9VoJd0DQMb7h-28" value="2" style="edgeLabel;html=1;align=center;verticalAlign=bottom;resizable=0;points=[];labelBackgroundColor=none;" vertex="1" connectable="0" parent="h3IM62Ve9VoJd0DQMb7h-26">
          <mxGeometry x="-0.2479" y="2" relative="1" as="geometry">
            <mxPoint x="-54" as="offset" />
          </mxGeometry>
        </mxCell>
        <mxCell id="h3IM62Ve9VoJd0DQMb7h-30" value="&lt;b&gt;...&lt;/b&gt;" style="text;html=1;align=center;verticalAlign=middle;resizable=0;points=[];autosize=1;strokeColor=none;fillColor=none;horizontal=0;" vertex="1" parent="h3IM62Ve9VoJd0DQMb7h-63">
          <mxGeometry x="299.91452991452996" y="320" width="30" height="30" as="geometry" />
        </mxCell>
        <mxCell id="h3IM62Ve9VoJd0DQMb7h-36" value="full crossbar&lt;br&gt;60x60&lt;br&gt;&lt;br&gt;&lt;br&gt;&lt;br&gt;40 external&lt;br&gt;inputs&lt;br&gt;&lt;br&gt;&lt;br&gt;&lt;br&gt;20 feedback&lt;br&gt;lines&lt;br&gt;&lt;br&gt;&lt;br&gt;&lt;br&gt;60 fle&lt;br&gt;outputs" style="rounded=0;whiteSpace=wrap;html=1;points=[[0,0,0,0,0],[0,0.25,0,0,0],[0,0.5,0,0,0],[0,0.75,0,0,0],[0,1,0,0,0],[0.25,0,0,0,0],[0.25,1,0,0,0],[0.5,0,0,0,0],[0.5,1,0,0,0],[0.75,0,0,0,0],[0.75,1,0,0,0],[1,0,0,0,0],[1,0.2,0,0,0],[1,0.25,0,0,0],[1,0.33,0,0,0],[1,0.4,0,0,0],[1,0.5,0,0,0],[1,0.6,0,0,0],[1,0.67,0,0,0],[1,0.75,0,0,0],[1,0.8,0,0,0],[1,1,0,0,0]];" vertex="1" parent="h3IM62Ve9VoJd0DQMb7h-63">
          <mxGeometry x="51.70940170940171" y="60" width="124.10256410256406" height="360" as="geometry" />
        </mxCell>
        <mxCell id="h3IM62Ve9VoJd0DQMb7h-38" style="edgeStyle=orthogonalEdgeStyle;rounded=0;orthogonalLoop=1;jettySize=auto;html=0;labelBorderColor=none;startArrow=none;startFill=0;endArrow=classic;endFill=1;entryX=0;entryY=0.5;entryDx=0;entryDy=0;exitX=1.002;exitY=0.36;exitDx=0;exitDy=0;exitPerimeter=0;" edge="1" parent="h3IM62Ve9VoJd0DQMb7h-63" source="h3IM62Ve9VoJd0DQMb7h-36" target="h3IM62Ve9VoJd0DQMb7h-3">
          <mxGeometry relative="1" as="geometry">
            <mxPoint x="186.1538461538461" y="190" as="sourcePoint" />
            <mxPoint x="227.52136752136752" y="189.99857142857135" as="targetPoint" />
          </mxGeometry>
        </mxCell>
        <mxCell id="h3IM62Ve9VoJd0DQMb7h-37" style="edgeStyle=orthogonalEdgeStyle;rounded=0;orthogonalLoop=1;jettySize=auto;html=0;labelBorderColor=none;startArrow=none;startFill=0;endArrow=classic;endFill=1;exitX=1;exitY=0.083;exitDx=0;exitDy=0;exitPerimeter=0;" edge="1" parent="h3IM62Ve9VoJd0DQMb7h-63" source="h3IM62Ve9VoJd0DQMb7h-36" target="h3IM62Ve9VoJd0DQMb7h-2">
          <mxGeometry relative="1" as="geometry" />
        </mxCell>
        <mxCell id="h3IM62Ve9VoJd0DQMb7h-42" value="/" style="edgeLabel;html=1;align=center;verticalAlign=middle;resizable=0;points=[];labelBackgroundColor=none;" vertex="1" connectable="0" parent="h3IM62Ve9VoJd0DQMb7h-37">
          <mxGeometry x="0.342" y="1" relative="1" as="geometry">
            <mxPoint x="-13" y="1" as="offset" />
          </mxGeometry>
        </mxCell>
        <mxCell id="h3IM62Ve9VoJd0DQMb7h-43" value="6" style="edgeLabel;html=1;align=center;verticalAlign=bottom;resizable=0;points=[];labelBackgroundColor=none;" vertex="1" connectable="0" parent="h3IM62Ve9VoJd0DQMb7h-37">
          <mxGeometry x="0.2403" y="1" relative="1" as="geometry">
            <mxPoint x="-3" y="1" as="offset" />
          </mxGeometry>
        </mxCell>
        <mxCell id="h3IM62Ve9VoJd0DQMb7h-39" style="edgeStyle=orthogonalEdgeStyle;rounded=0;orthogonalLoop=1;jettySize=auto;html=0;labelBorderColor=none;startArrow=none;startFill=0;endArrow=classic;endFill=1;exitX=1.001;exitY=0.639;exitDx=0;exitDy=0;exitPerimeter=0;entryX=0;entryY=0.5;entryDx=0;entryDy=0;" edge="1" parent="h3IM62Ve9VoJd0DQMb7h-63" source="h3IM62Ve9VoJd0DQMb7h-36" target="h3IM62Ve9VoJd0DQMb7h-5">
          <mxGeometry relative="1" as="geometry">
            <mxPoint x="186.1538461538461" y="290" as="sourcePoint" />
            <mxPoint x="227.52136752136752" y="289.9985714285714" as="targetPoint" />
            <Array as="points" />
          </mxGeometry>
        </mxCell>
        <mxCell id="h3IM62Ve9VoJd0DQMb7h-40" style="edgeStyle=orthogonalEdgeStyle;rounded=0;orthogonalLoop=1;jettySize=auto;html=0;labelBorderColor=none;startArrow=none;startFill=0;endArrow=classic;endFill=1;exitX=1;exitY=0.083;exitDx=0;exitDy=0;exitPerimeter=0;" edge="1" parent="h3IM62Ve9VoJd0DQMb7h-63">
          <mxGeometry relative="1" as="geometry">
            <mxPoint x="175.81196581196576" y="389.85" as="sourcePoint" />
            <mxPoint x="237.86324786324786" y="389.9985714285714" as="targetPoint" />
            <Array as="points">
              <mxPoint x="206.83760683760684" y="390" />
              <mxPoint x="237.86324786324786" y="390" />
            </Array>
          </mxGeometry>
        </mxCell>
        <mxCell id="h3IM62Ve9VoJd0DQMb7h-48" value="/" style="edgeLabel;html=1;align=center;verticalAlign=middle;resizable=0;points=[];labelBackgroundColor=none;" vertex="1" connectable="0" parent="h3IM62Ve9VoJd0DQMb7h-63">
          <mxGeometry x="203.7315940797016" y="190" as="geometry" />
        </mxCell>
        <mxCell id="h3IM62Ve9VoJd0DQMb7h-49" value="6" style="edgeLabel;html=1;align=center;verticalAlign=bottom;resizable=0;points=[];labelBackgroundColor=none;" vertex="1" connectable="0" parent="h3IM62Ve9VoJd0DQMb7h-63">
          <mxGeometry x="210.91345542822947" y="190" as="geometry" />
        </mxCell>
        <mxCell id="h3IM62Ve9VoJd0DQMb7h-50" value="/" style="edgeLabel;html=1;align=center;verticalAlign=middle;resizable=0;points=[];labelBackgroundColor=none;" vertex="1" connectable="0" parent="h3IM62Ve9VoJd0DQMb7h-63">
          <mxGeometry x="203.7315940797016" y="290" as="geometry" />
        </mxCell>
        <mxCell id="h3IM62Ve9VoJd0DQMb7h-51" value="6" style="edgeLabel;html=1;align=center;verticalAlign=bottom;resizable=0;points=[];labelBackgroundColor=none;" vertex="1" connectable="0" parent="h3IM62Ve9VoJd0DQMb7h-63">
          <mxGeometry x="210.91345542822947" y="290" as="geometry" />
        </mxCell>
        <mxCell id="h3IM62Ve9VoJd0DQMb7h-52" value="/" style="edgeLabel;html=1;align=center;verticalAlign=middle;resizable=0;points=[];labelBackgroundColor=none;" vertex="1" connectable="0" parent="h3IM62Ve9VoJd0DQMb7h-63">
          <mxGeometry x="203.7315940797016" y="390" as="geometry" />
        </mxCell>
        <mxCell id="h3IM62Ve9VoJd0DQMb7h-53" value="6" style="edgeLabel;html=1;align=center;verticalAlign=bottom;resizable=0;points=[];labelBackgroundColor=none;" vertex="1" connectable="0" parent="h3IM62Ve9VoJd0DQMb7h-63">
          <mxGeometry x="210.91345542822947" y="390" as="geometry" />
        </mxCell>
        <mxCell id="h3IM62Ve9VoJd0DQMb7h-58" style="edgeStyle=orthogonalEdgeStyle;rounded=0;orthogonalLoop=1;jettySize=auto;html=0;exitX=1;exitY=0.5;exitDx=0;exitDy=0;labelBorderColor=none;startArrow=none;startFill=0;endArrow=classic;endFill=1;" edge="1" parent="h3IM62Ve9VoJd0DQMb7h-63">
          <mxGeometry relative="1" as="geometry">
            <mxPoint x="424.01709401709394" y="290.02000000000004" as="targetPoint" />
            <mxPoint x="361.96581196581195" y="290.02000000000004" as="sourcePoint" />
            <Array as="points">
              <mxPoint x="424.01709401709394" y="290.02000000000004" />
            </Array>
          </mxGeometry>
        </mxCell>
        <mxCell id="h3IM62Ve9VoJd0DQMb7h-68" style="edgeStyle=orthogonalEdgeStyle;rounded=0;orthogonalLoop=1;jettySize=auto;html=0;exitX=1;exitY=0.5;exitDx=0;exitDy=0;labelBorderColor=none;startArrow=none;startFill=0;endArrow=classic;endFill=1;" edge="1" parent="h3IM62Ve9VoJd0DQMb7h-63">
          <mxGeometry relative="1" as="geometry">
            <mxPoint x="424.01709401709394" y="395.02" as="targetPoint" />
            <mxPoint x="361.96581196581195" y="395.02" as="sourcePoint" />
            <Array as="points">
              <mxPoint x="424.01709401709394" y="395.02" />
            </Array>
          </mxGeometry>
        </mxCell>
        <mxCell id="h3IM62Ve9VoJd0DQMb7h-69" style="edgeStyle=orthogonalEdgeStyle;rounded=0;orthogonalLoop=1;jettySize=auto;html=0;exitX=1;exitY=0.5;exitDx=0;exitDy=0;labelBorderColor=none;startArrow=none;startFill=0;endArrow=classic;endFill=1;" edge="1" parent="h3IM62Ve9VoJd0DQMb7h-63">
          <mxGeometry relative="1" as="geometry">
            <mxPoint x="424.01709401709394" y="89.96" as="targetPoint" />
            <mxPoint x="361.96581196581195" y="89.96" as="sourcePoint" />
            <Array as="points">
              <mxPoint x="424.01709401709394" y="89.96000000000005" />
            </Array>
          </mxGeometry>
        </mxCell>
        <mxCell id="h3IM62Ve9VoJd0DQMb7h-75" value="" style="endArrow=classic;html=1;rounded=0;labelBorderColor=none;fontSize=18;fontColor=none;entryX=0.258;entryY=-0.011;entryDx=0;entryDy=0;entryPerimeter=0;" edge="1" parent="h3IM62Ve9VoJd0DQMb7h-63">
          <mxGeometry width="50" height="50" relative="1" as="geometry">
            <mxPoint x="270.7521367521367" as="sourcePoint" />
            <mxPoint x="270.8817094017094" y="59.339999999999975" as="targetPoint" />
            <Array as="points" />
          </mxGeometry>
        </mxCell>
        <mxCell id="h3IM62Ve9VoJd0DQMb7h-129" value="" style="endArrow=none;html=1;rounded=0;labelBorderColor=none;fontSize=18;fontColor=none;" edge="1" parent="h3IM62Ve9VoJd0DQMb7h-63">
          <mxGeometry width="50" height="50" relative="1" as="geometry">
            <mxPoint x="194.75213675213672" y="365" as="sourcePoint" />
            <mxPoint x="194.75213675213672" as="targetPoint" />
          </mxGeometry>
        </mxCell>
        <mxCell id="h3IM62Ve9VoJd0DQMb7h-135" value="/" style="edgeLabel;html=1;align=center;verticalAlign=middle;resizable=0;points=[];fontSize=12;fontColor=none;labelBackgroundColor=none;horizontal=0;" vertex="1" connectable="0" parent="h3IM62Ve9VoJd0DQMb7h-129">
          <mxGeometry x="0.8959" relative="1" as="geometry">
            <mxPoint as="offset" />
          </mxGeometry>
        </mxCell>
        <mxCell id="h3IM62Ve9VoJd0DQMb7h-140" value="3" style="edgeLabel;html=1;align=center;verticalAlign=bottom;resizable=0;points=[];fontSize=12;fontColor=none;horizontal=0;" vertex="1" connectable="0" parent="h3IM62Ve9VoJd0DQMb7h-129">
          <mxGeometry x="0.7726" y="-1" relative="1" as="geometry">
            <mxPoint y="-18" as="offset" />
          </mxGeometry>
        </mxCell>
        <mxCell id="h3IM62Ve9VoJd0DQMb7h-132" value="" style="endArrow=classic;html=1;rounded=0;labelBorderColor=none;fontSize=12;fontColor=none;" edge="1" parent="h3IM62Ve9VoJd0DQMb7h-63">
          <mxGeometry width="50" height="50" relative="1" as="geometry">
            <mxPoint x="194.86213675213673" y="167" as="sourcePoint" />
            <mxPoint x="237.86213675213673" y="167" as="targetPoint" />
          </mxGeometry>
        </mxCell>
        <mxCell id="h3IM62Ve9VoJd0DQMb7h-133" value="" style="endArrow=classic;html=1;rounded=0;labelBorderColor=none;fontSize=12;fontColor=none;" edge="1" parent="h3IM62Ve9VoJd0DQMb7h-63">
          <mxGeometry width="50" height="50" relative="1" as="geometry">
            <mxPoint x="194.86213675213673" y="265" as="sourcePoint" />
            <mxPoint x="237.86213675213662" y="265" as="targetPoint" />
          </mxGeometry>
        </mxCell>
        <mxCell id="h3IM62Ve9VoJd0DQMb7h-131" value="" style="endArrow=classic;html=1;rounded=0;labelBorderColor=none;fontSize=12;fontColor=none;" edge="1" parent="h3IM62Ve9VoJd0DQMb7h-63">
          <mxGeometry width="50" height="50" relative="1" as="geometry">
            <mxPoint x="194.86213675213673" y="66" as="sourcePoint" />
            <mxPoint x="237.86213675213673" y="66" as="targetPoint" />
          </mxGeometry>
        </mxCell>
        <mxCell id="h3IM62Ve9VoJd0DQMb7h-134" value="" style="endArrow=classic;html=1;rounded=0;labelBorderColor=none;fontSize=12;fontColor=none;" edge="1" parent="h3IM62Ve9VoJd0DQMb7h-63">
          <mxGeometry width="50" height="50" relative="1" as="geometry">
            <mxPoint x="194.75213675213672" y="365" as="sourcePoint" />
            <mxPoint x="237.86213675213662" y="365" as="targetPoint" />
          </mxGeometry>
        </mxCell>
        <mxCell id="h3IM62Ve9VoJd0DQMb7h-137" value="/" style="edgeLabel;html=1;align=center;verticalAlign=middle;resizable=0;points=[];labelBackgroundColor=none;" vertex="1" connectable="0" parent="h3IM62Ve9VoJd0DQMb7h-63">
          <mxGeometry x="19.751959368702956" y="220" as="geometry" />
        </mxCell>
        <mxCell id="h3IM62Ve9VoJd0DQMb7h-138" value="40" style="edgeLabel;html=1;align=center;verticalAlign=bottom;resizable=0;points=[];labelBackgroundColor=none;" vertex="1" connectable="0" parent="h3IM62Ve9VoJd0DQMb7h-63">
          <mxGeometry x="26.751959368702956" y="220" as="geometry" />
        </mxCell>
        <mxCell id="h3IM62Ve9VoJd0DQMb7h-76" value="CLB" style="text;html=1;align=center;verticalAlign=middle;resizable=0;points=[];autosize=1;strokeColor=none;fillColor=none;fontSize=18;fontColor=none;" vertex="1" parent="h3IM62Ve9VoJd0DQMb7h-63">
          <mxGeometry x="-1.247863247863279" y="-1" width="60" height="40" as="geometry" />
        </mxCell>
        <mxCell id="h3IM62Ve9VoJd0DQMb7h-66" value="&lt;font style=&quot;font-size: 12px;&quot;&gt;20 General&lt;br style=&quot;&quot;&gt;outputs&lt;/font&gt;" style="text;html=1;align=center;verticalAlign=middle;resizable=0;points=[];autosize=1;strokeColor=none;fillColor=none;dashed=1;labelBackgroundColor=none;labelBorderColor=none;opacity=0;" vertex="1" parent="h3IM62Ve9VoJd0DQMb7h-74">
          <mxGeometry x="523.2649572649572" y="199" width="78" height="42" as="geometry" />
        </mxCell>
        <mxCell id="h3IM62Ve9VoJd0DQMb7h-67" value="40 General&lt;br&gt;inputs" style="text;html=1;align=center;verticalAlign=middle;resizable=0;points=[];autosize=1;strokeColor=none;fillColor=none;dashed=1;labelBackgroundColor=none;labelBorderColor=none;opacity=0;" vertex="1" parent="h3IM62Ve9VoJd0DQMb7h-74">
          <mxGeometry x="15.512820512820507" y="200" width="80" height="40" as="geometry" />
        </mxCell>
        <mxCell id="h3IM62Ve9VoJd0DQMb7h-61" style="rounded=0;orthogonalLoop=1;jettySize=auto;html=0;exitX=0;exitY=0.5;exitDx=0;exitDy=0;labelBorderColor=none;startArrow=none;startFill=0;endArrow=classic;endFill=1;" edge="1" parent="h3IM62Ve9VoJd0DQMb7h-74">
          <mxGeometry relative="1" as="geometry">
            <mxPoint y="256.0000000000001" as="targetPoint" />
            <mxPoint y="256.0000000000001" as="sourcePoint" />
          </mxGeometry>
        </mxCell>
        <mxCell id="h3IM62Ve9VoJd0DQMb7h-62" style="edgeStyle=none;rounded=0;orthogonalLoop=1;jettySize=auto;html=0;entryX=0;entryY=0.444;entryDx=0;entryDy=0;entryPerimeter=0;labelBorderColor=none;startArrow=none;startFill=0;endArrow=classic;endFill=1;" edge="1" parent="h3IM62Ve9VoJd0DQMb7h-74" target="h3IM62Ve9VoJd0DQMb7h-36">
          <mxGeometry relative="1" as="geometry">
            <mxPoint x="98" y="220" as="sourcePoint" />
          </mxGeometry>
        </mxCell>
        <mxCell id="h3IM62Ve9VoJd0DQMb7h-126" style="edgeStyle=none;rounded=0;orthogonalLoop=1;jettySize=auto;html=0;exitX=0.25;exitY=1;exitDx=0;exitDy=0;labelBorderColor=none;fontSize=18;fontColor=none;startArrow=none;startFill=0;endArrow=classic;endFill=1;" edge="1" parent="h3IM62Ve9VoJd0DQMb7h-343">
          <mxGeometry relative="1" as="geometry">
            <mxPoint x="369.1218274111675" y="478" as="targetPoint" />
            <mxPoint x="369.1367521367521" y="458" as="sourcePoint" />
          </mxGeometry>
        </mxCell>
        <mxCell id="h3IM62Ve9VoJd0DQMb7h-127" value="&lt;font style=&quot;font-size: 12px;&quot;&gt;carry in&lt;/font&gt;" style="text;html=1;align=center;verticalAlign=middle;resizable=0;points=[];autosize=1;strokeColor=none;fillColor=none;fontSize=18;fontColor=none;" vertex="1" parent="h3IM62Ve9VoJd0DQMb7h-343">
          <mxGeometry x="340" width="58" height="35" as="geometry" />
        </mxCell>
        <mxCell id="h3IM62Ve9VoJd0DQMb7h-130" value="&lt;font style=&quot;font-size: 11px;&quot;&gt;global signal&lt;/font&gt;" style="text;html=1;align=center;verticalAlign=middle;resizable=0;points=[];autosize=1;strokeColor=none;fillColor=none;fontSize=18;fontColor=none;" vertex="1" parent="h3IM62Ve9VoJd0DQMb7h-343">
          <mxGeometry x="247" y="2" width="86" height="35" as="geometry" />
        </mxCell>
      </root>
    </mxGraphModel>
  </diagram>
</mxfile>
